<svg
      width="394"
      height="78"
      viewBox="0 0 394 78"
      fill="none"
      className="h-24 w-24 md:h-[7.5rem] md:w-[7.5rem] "
      xmlns="http://www.w3.org/2000/svg"
    >
      <path
        d="M387.539 62.9093H385.528C385.528 53.1977 385.506 43.4861 385.463 33.7745H383.029V31.7306H385.463V26.0529L385.43 25.3391C385.43 23.6736 385.766 22.2893 386.436 21.1862C387.107 20.0615 387.961 19.218 388.999 18.6556C389.973 18.1365 390.957 17.877 391.952 17.877L391.984 19.8885C391.27 19.9101 390.589 20.094 389.94 20.44C389.205 20.8294 388.599 21.4566 388.123 22.3218C387.669 23.1653 387.442 24.2252 387.442 25.5013L387.474 31.7306H393.574V33.7745H387.474C387.518 43.4861 387.539 53.1977 387.539 62.9093Z"
        fill="#092517"
      />
      <path
        d="M358.084 61.0275C360.009 61.0275 361.826 60.6598 363.534 59.9244C365.243 59.189 366.736 58.1724 368.012 56.8747C369.288 55.5769 370.294 54.0737 371.029 52.3649C371.764 50.6346 372.132 48.7961 372.132 46.8494C372.132 44.8812 371.764 43.0427 371.029 41.334C370.294 39.6036 369.288 38.0895 368.012 36.7918C366.736 35.494 365.243 34.4774 363.534 33.742C361.826 33.0066 360.009 32.6389 358.084 32.6389C356.137 32.6389 354.31 33.0066 352.601 33.742C350.914 34.4774 349.421 35.494 348.124 36.7918C346.847 38.0895 345.842 39.6036 345.106 41.334C344.371 43.0427 344.003 44.8812 344.003 46.8494C344.003 48.7961 344.371 50.6346 345.106 52.3649C345.842 54.0737 346.847 55.5769 348.124 56.8747C349.421 58.1724 350.914 59.189 352.601 59.9244C354.31 60.6598 356.137 61.0275 358.084 61.0275ZM358.084 63.0715C355.856 63.0715 353.769 62.6497 351.822 61.8061C349.876 60.9626 348.167 59.8054 346.696 58.3346C345.225 56.8422 344.068 55.1119 343.224 53.1436C342.403 51.1753 341.992 49.0773 341.992 46.8494C341.992 44.6 342.403 42.4911 343.224 40.5229C344.068 38.5546 345.225 36.835 346.696 35.3642C348.167 33.8718 349.876 32.7038 351.822 31.8603C353.769 31.0167 355.856 30.595 358.084 30.595C360.29 30.595 362.366 31.0167 364.313 31.8603C366.26 32.7038 367.968 33.8718 369.439 35.3642C370.91 36.835 372.056 38.5546 372.878 40.5229C373.722 42.4911 374.144 44.6 374.144 46.8494C374.144 49.0773 373.722 51.1753 372.878 53.1436C372.056 55.1119 370.91 56.8422 369.439 58.3346C367.968 59.8054 366.26 60.9626 364.313 61.8061C362.366 62.6497 360.29 63.0715 358.084 63.0715Z"
        fill="#092517"
      />
      <path
        d="M317.89 61.0275C319.815 61.0275 321.631 60.6598 323.34 59.9244C325.049 59.189 326.541 58.1724 327.817 56.8747C329.094 55.5769 330.099 54.0737 330.835 52.3649C331.57 50.6346 331.938 48.7961 331.938 46.8494C331.938 44.8812 331.57 43.0427 330.835 41.334C330.099 39.6036 329.094 38.0895 327.817 36.7918C326.541 35.494 325.049 34.4774 323.34 33.742C321.631 33.0066 319.815 32.6389 317.89 32.6389C315.943 32.6389 314.115 33.0066 312.407 33.742C310.719 34.4774 309.227 35.494 307.929 36.7918C306.653 38.0895 305.647 39.6036 304.912 41.334C304.177 43.0427 303.809 44.8812 303.809 46.8494C303.809 48.7961 304.177 50.6346 304.912 52.3649C305.647 54.0737 306.653 55.5769 307.929 56.8747C309.227 58.1724 310.719 59.189 312.407 59.9244C314.115 60.6598 315.943 61.0275 317.89 61.0275ZM317.89 63.0715C315.662 63.0715 313.575 62.6497 311.628 61.8061C309.681 60.9626 307.973 59.8054 306.502 58.3346C305.031 56.8422 303.874 55.1119 303.03 53.1436C302.208 51.1753 301.797 49.0773 301.797 46.8494C301.797 44.6 302.208 42.4911 303.03 40.5229C303.874 38.5546 305.031 36.835 306.502 35.3642C307.973 33.8718 309.681 32.7038 311.628 31.8603C313.575 31.0167 315.662 30.595 317.89 30.595C320.096 30.595 322.172 31.0167 324.119 31.8603C326.066 32.7038 327.774 33.8718 329.245 35.3642C330.716 36.835 331.862 38.5546 332.684 40.5229C333.528 42.4911 333.949 44.6 333.949 46.8494C333.949 49.0773 333.528 51.1753 332.684 53.1436C331.862 55.1119 330.716 56.8422 329.245 58.3346C327.774 59.8054 326.066 60.9626 324.119 61.8061C322.172 62.6497 320.096 63.0715 317.89 63.0715Z"
        fill="#092517"
      />
      <path
        d="M286.909 62.9092H284.638V31.8278H286.65V38.9655C287.796 36.6079 289.332 34.6828 291.257 33.1904C293.182 31.698 295.356 30.8004 297.778 30.4976L297.746 32.5415C294.977 32.9741 292.598 34.3151 290.608 36.5646C289.224 38.1219 288.261 39.7982 287.72 41.5934C287.201 43.367 286.942 45.411 286.942 47.7254H286.909V62.9092Z"
        fill="#092517"
      />
      <path
        d="M256.011 63.5072C253.132 63.5072 250.607 62.8206 248.436 61.4474C246.31 60.0742 244.649 58.1473 243.453 55.6667C242.301 53.1418 241.725 50.1739 241.725 46.763C241.725 43.3078 242.301 40.3399 243.453 37.8593C244.649 35.3344 246.31 33.4075 248.436 32.0786C250.607 30.7054 253.132 30.0188 256.011 30.0188C258.935 30.0188 261.438 30.7497 263.52 32.2115C265.602 33.6733 266.997 35.6445 267.706 38.1251H266.975V18.3244C266.975 17.4384 267.196 16.774 267.639 16.331C268.126 15.8437 268.813 15.6001 269.699 15.6001C270.541 15.6001 271.183 15.8437 271.626 16.331C272.113 16.774 272.357 17.4384 272.357 18.3244V60.5837C272.357 61.4696 272.135 62.1562 271.692 62.6435C271.249 63.1307 270.585 63.3744 269.699 63.3744C268.857 63.3744 268.193 63.1307 267.706 62.6435C267.263 62.1562 267.041 61.4696 267.041 60.5837V54.2713L267.772 55.2016C267.063 57.7265 265.646 59.742 263.52 61.2481C261.438 62.7542 258.935 63.5072 256.011 63.5072ZM257.141 59.1883C259.134 59.1883 260.884 58.701 262.39 57.7265C263.896 56.752 265.048 55.3345 265.845 53.474C266.687 51.6135 267.108 49.3765 267.108 46.763C267.108 42.732 266.2 39.6533 264.383 37.5271C262.611 35.4008 260.197 34.3377 257.141 34.3377C255.103 34.3377 253.331 34.825 251.825 35.7995C250.363 36.7297 249.212 38.1251 248.37 39.9856C247.573 41.8017 247.174 44.0609 247.174 46.763C247.174 50.7497 248.082 53.8284 249.898 55.9989C251.714 58.1252 254.129 59.1883 257.141 59.1883Z"
        fill="#092517"
      />
      <path
        d="M219.032 63.3743C218.146 63.3743 217.459 63.1306 216.972 62.6434C216.529 62.1561 216.307 61.4695 216.307 60.5836V32.8758C216.307 31.9899 216.529 31.3254 216.972 30.8824C217.415 30.3952 218.057 30.1515 218.899 30.1515C219.741 30.1515 220.383 30.3952 220.826 30.8824C221.313 31.3254 221.557 31.9899 221.557 32.8758V38.2579H220.892C221.601 35.6444 222.952 33.6289 224.945 32.2114C226.939 30.7939 229.397 30.0408 232.321 29.9522C232.985 29.9079 233.517 30.063 233.916 30.4173C234.314 30.7274 234.536 31.2811 234.58 32.0785C234.624 32.8315 234.447 33.4295 234.048 33.8725C233.65 34.3155 233.03 34.5812 232.188 34.6698L231.125 34.8027C228.113 35.0685 225.787 36.043 224.148 37.7263C222.553 39.3653 221.756 41.6245 221.756 44.5038V60.5836C221.756 61.4695 221.512 62.1561 221.025 62.6434C220.582 63.1306 219.918 63.3743 219.032 63.3743Z"
        fill="#092517"
      />
      <path
        d="M191.508 63.5073C188.098 63.5073 185.152 62.8428 182.671 61.5139C180.235 60.1407 178.33 58.2138 176.957 55.7332C175.628 53.2526 174.964 50.2847 174.964 46.8295C174.964 43.4629 175.628 40.5393 176.957 38.0587C178.286 35.5338 180.102 33.5626 182.405 32.145C184.753 30.7275 187.455 30.0188 190.512 30.0188C192.682 30.0188 194.631 30.3953 196.359 31.1484C198.087 31.8571 199.548 32.8981 200.744 34.2713C201.985 35.6445 202.915 37.3056 203.535 39.2547C204.2 41.2038 204.532 43.3965 204.532 45.8328C204.532 46.5416 204.332 47.0731 203.934 47.4275C203.535 47.7376 202.959 47.8926 202.206 47.8926H179.083V44.371H200.944L199.881 45.2348C199.881 42.8428 199.526 40.8273 198.817 39.1883C198.109 37.505 197.068 36.2204 195.695 35.3344C194.366 34.4485 192.682 34.0055 190.645 34.0055C188.386 34.0055 186.459 34.5371 184.864 35.6002C183.314 36.619 182.14 38.0587 181.342 39.9192C180.545 41.7353 180.146 43.8616 180.146 46.2979V46.6966C180.146 50.7719 181.121 53.8727 183.07 55.999C185.063 58.1252 187.876 59.1883 191.508 59.1883C193.015 59.1883 194.499 58.989 195.96 58.5903C197.466 58.1917 198.928 57.5272 200.346 56.597C200.966 56.1983 201.52 56.0211 202.007 56.0654C202.538 56.0654 202.959 56.2204 203.269 56.5305C203.579 56.7963 203.779 57.1507 203.867 57.5937C204 57.9923 203.956 58.4353 203.734 58.9226C203.557 59.4098 203.181 59.8306 202.605 60.185C201.143 61.2481 199.415 62.0676 197.422 62.6435C195.429 63.2194 193.458 63.5073 191.508 63.5073Z"
        fill="#092517"
      />
      <path
        d="M151.255 63.3743C150.502 63.3743 149.837 63.175 149.261 62.7763C148.686 62.3334 148.198 61.6689 147.8 60.783L136.305 33.939C135.995 33.2745 135.884 32.6544 135.972 32.0785C136.061 31.5027 136.327 31.0376 136.77 30.6832C137.213 30.3288 137.833 30.1516 138.63 30.1516C139.339 30.1516 139.893 30.3066 140.291 30.6167C140.69 30.9268 141.044 31.4805 141.354 32.2779L152.252 58.9225H150.458L161.554 32.2779C161.864 31.4805 162.218 30.9268 162.617 30.6167C163.016 30.3066 163.592 30.1516 164.345 30.1516C165.053 30.1516 165.585 30.3288 165.939 30.6832C166.338 31.0376 166.559 31.5027 166.604 32.0785C166.692 32.6101 166.604 33.2081 166.338 33.8726L154.71 60.783C154.4 61.6689 153.935 62.3334 153.315 62.7763C152.739 63.175 152.052 63.3743 151.255 63.3743Z"
        fill="#092517"
      />
      <path
        d="M64.245 78L7.03481 78C0.918487 78 -2.27311 70.8074 1.86976 66.36L26.7595 39.6409C27.2342 39.1312 27.9032 38.8413 28.6041 38.8413C30.7885 38.8413 31.9284 41.4101 30.4488 42.9984L5.55908 69.7175C4.3754 70.9882 5.28728 73.0432 7.0348 73.0432L64.245 73.0432C65.6298 73.0432 66.7525 74.1528 66.7525 75.5216C66.7525 76.8904 65.6298 78 64.245 78Z"
        fill="#85D120"
      />
      <path
        d="M66.7525 -5.83569e-06C68.637 -6.00043e-06 70.5215 0.744195 71.9115 2.23258L110.037 43.0566C114.189 47.5018 110.999 54.703 104.878 54.703L69.26 54.703C67.8751 54.703 66.7525 53.5934 66.7525 52.2246C66.7525 50.8558 67.8751 49.7462 69.26 49.7462L104.878 49.7462C106.627 49.7462 107.538 47.6887 106.352 46.4187L68.2265 5.59467C67.8293 5.16942 67.2909 4.9568 66.7525 4.9568L66.7525 4.98181C66.2127 4.98181 65.6728 5.19553 65.2755 5.62297L47.1605 25.1077C45.9787 26.3788 46.891 28.432 48.6376 28.432L64.245 28.432C65.6299 28.432 66.7525 29.5416 66.7525 30.9104C66.7525 32.2792 65.6299 33.3888 64.245 33.3888L48.6376 33.3888C42.5246 33.3888 39.3316 26.2028 43.4679 21.7538L61.5828 2.26908C62.9737 0.773028 64.8631 0.0250035 66.7525 0.0250033L66.7525 -5.83569e-06Z"
        fill="#85D120"
      />
    </svg>
